HIERARCHY
ROOT Hips
{
	OFFSET 0.00000 0.00000 0.00000
	CHANNELS 6 Xposition Yposition Zposition Zrotation Yrotation Xrotation 
	JOINT LHipJoint
	{
		OFFSET 0 0 0
		CHANNELS 3 Zrotation Yrotation Xrotation
		JOINT LeftHip
		{
			OFFSET 1.84395 -1.68683 0.74144
			CHANNELS 3 Zrotation Yrotation Xrotation
			JOINT LeftKnee
			{
				OFFSET 2.27037 -6.23779 0.00000
				CHANNELS 3 Zrotation Yrotation Xrotation
				JOINT LeftAnkle
				{
					OFFSET 2.56918 -7.05877 0.00000
					CHANNELS 3 Zrotation Yrotation Xrotation
					JOINT LeftToe
					{
						OFFSET 0.22276 -0.61202 1.71784
						CHANNELS 3 Zrotation Yrotation Xrotation
						End Site
						{
							OFFSET 0.00000 -0.00000 0.91613
						}
					}
				}
			}
		}
	}
	JOINT RHipJoint
	{
		OFFSET 0 0 0
		CHANNELS 3 Zrotation Yrotation Xrotation
		JOINT RightHip
		{
			OFFSET -1.76833 -1.68684 0.74144
			CHANNELS 3 Zrotation Yrotation Xrotation
			JOINT RightKnee
			{
				OFFSET -2.49360 -6.85110 0.00000
				CHANNELS 3 Zrotation Yrotation Xrotation
				JOINT RightAnkle
				{
					OFFSET -2.55538 -7.02085 0.00000
					CHANNELS 3 Zrotation Yrotation Xrotation
					JOINT RightToe
					{
						OFFSET -0.21516 -0.59115 1.68050
						CHANNELS 3 Zrotation Yrotation Xrotation
						End Site
						{
							OFFSET -0.00000 -0.00000 0.89604
						}
					}
				}
			}
		}
	}
	JOINT lowerback
	{
		OFFSET 0 0 0
		CHANNELS 3 Zrotation Yrotation Xrotation
		JOINT Chest
		{
			OFFSET 0.06382 1.72312 -0.19613
			CHANNELS 3 Zrotation Yrotation Xrotation
			JOINT Chest2
			{
				OFFSET -0.00055 1.73507 0.23859
				CHANNELS 3 Zrotation Yrotation Xrotation
				JOINT lowerneck
				{
					OFFSET 0 0 0
					CHANNELS 3 Zrotation Yrotation Xrotation
					JOINT Neck
					{
						OFFSET 0.03638 1.65562 0.09633
						CHANNELS 3 Zrotation Yrotation Xrotation
						JOINT Head
						{
							OFFSET 0.06388 1.62807 -0.32386
							CHANNELS 3 Zrotation Yrotation Xrotation
							End Site
							{
								OFFSET 0.00995 1.67644 -0.12021
							}
						}
					}
				}
				JOINT LeftCollar
				{
					OFFSET 0 0 0
					CHANNELS 3 Zrotation Yrotation Xrotation
					JOINT LeftShoulder
					{
						OFFSET 3.09648 1.42991 0.28122
CHANNELS 3 Zrotation Xrotation Yrotation
						JOINT LeftElbow
						{
OFFSET 0 -5.118780 -0.000000
CHANNELS 3 Zrotation Xrotation Yrotation
							JOINT LeftWrist
							{
OFFSET 0 -3.599710 0.000000
CHANNELS 3 Zrotation Xrotation Yrotation
								JOINT lhand
								{
									OFFSET 0 0 0
CHANNELS 3 Zrotation Xrotation Yrotation
									JOINT LFingers
									{
OFFSET 0 -0.628770 0.000000
CHANNELS 3 Zrotation Xrotation Yrotation
										End Site
										{
OFFSET 0 -0.506930 0.000000
										}
									}
								}
								JOINT LThumb
								{
OFFSET 0 0.000000 0.000000
CHANNELS 3 Zrotation Xrotation Yrotation
									End Site
									{
OFFSET 0 -0.514670 0.514670
									}
								}
							}
						}
					}
				}
				JOINT RightCollar
				{
					OFFSET 0 0 0
					CHANNELS 3 Zrotation Yrotation Xrotation
					JOINT RightShoulder
					{
						OFFSET -3.33565 1.14597 0.05047
CHANNELS 3 Zrotation Xrotation Yrotation
						JOINT RightElbow
						{
OFFSET 0 -5.490200 0.000000
CHANNELS 3 Zrotation Xrotation Yrotation
							JOINT RightWrist
							{
OFFSET 0 -3.206590 -0.000000
CHANNELS 3 Zrotation Xrotation Yrotation
								JOINT rhand
								{
									OFFSET 0 0 0
CHANNELS 3 Zrotation Xrotation Yrotation
									JOINT RFingers
									{
OFFSET 0 -0.691880 0.000000
CHANNELS 3 Zrotation Xrotation Yrotation
										End Site
										{
OFFSET 0 -0.557810 0.000000
										}
									}
								}
								JOINT RThumb
								{
OFFSET 0 0.000000 0.000000
CHANNELS 3 Zrotation Xrotation Yrotation
									End Site
									{
OFFSET 0 -0.566330 0.566330
									}
								}
							}
						}
					}
				}
			}
		}
	}
}
MOTION
Frames: 7
Frame Time: 0.008333333333333333
0.028400 17.483100 8.636700 -8.891800 3.096000 11.323800 0.000000 0.000000 0.000000 -16.099000 -43.536700 21.310900 0.059000 -1.567600 -4.312000 -6.487800 43.273300 -38.242000 0.106600 2.104900 5.795600 0.000000 0.000000 0.000000 27.448900 24.966100 5.077100 -0.009400 -0.624600 1.716400 1.184700 -23.070000 -23.039200 -0.006800 -0.531700 1.460900 5.018400 0.091300 -3.062300 2.691400 0.483300 -10.979000 0.049500 -0.052600 -9.939000 -14.522200 -13.566600 0.425300 13.429300 -20.833700 19.583300 4.810800 -10.146600 9.013400 -0.000000 -0.000000 0.000000 -3.220200 8.954000 15.472500 5.928200 -10.142300 0.526500 18.079600 52.711600 14.123600 0.000000 0.000000 0.000000 -7.125000 0.000000 0.000000 -6.391900 15.217200 -4.518700 -0.000000 -0.000000 0.000000 0.952200 10.938400 0.665200 -9.588400 -16.093200 -1.358600 13.163400 34.030200 33.780500 0.000000 0.000000 0.000000 7.125000 0.000000 -0.000000 49.263400 56.743400 -16.972600
0.029359 17.482552 8.638583 -8.928777 3.151325 11.286632 0.000000 0.000000 0.000000 -16.040530 -43.498832 21.313412 0.059627 -1.575945 -4.335203 -6.273074 43.009454 -38.572531 0.139432 2.406311 6.629920 0.000000 0.000000 0.000000 27.528319 25.026855 5.169956 -0.009100 -0.616006 1.692705 1.188891 -23.145425 -23.160124 -0.044653 -1.359209 3.737792 5.064850 0.066293 -3.013203 2.711006 0.454495 -10.946689 0.045950 -0.069413 -9.933138 -14.583567 -13.572489 0.424728 13.484114 -20.847685 19.558208 4.835250 -10.153741 9.020630 0.000000 0.000000 0.000000 -3.220489 8.898970 15.521740 5.948965 -10.177017 0.530238 17.893042 52.844585 14.290335 0.000000 0.000000 0.000000 -7.125000 0.000000 0.000000 -6.523145 15.061817 -4.634583 0.000000 0.000000 0.000000 0.940811 10.921085 0.663051 -9.630511 -16.159497 -1.370324 13.165041 34.017040 33.818698 0.000000 0.000000 0.000000 7.125000 0.000000 0.000000 49.304943 56.769904 -17.026220
0.019619 17.492650 8.669993 -8.684662 3.314519 11.912903 0.000000 0.000000 0.000000 -15.888390 -44.134383 20.774449 0.058927 -1.566462 -4.308902 -6.378864 43.259643 -38.797672 0.134139 2.360426 6.502876 0.000000 0.000000 0.000000 27.105985 25.506861 4.864656 -0.006858 -0.534211 1.467905 1.226283 -23.476846 -23.493562 -0.089253 -1.926492 5.302633 4.790953 0.306147 -4.178973 2.281451 0.661502 -11.027420 -0.270618 0.044235 -9.318374 -14.325069 -14.258985 -0.126974 13.274707 -21.858311 20.280673 4.515766 -10.576549 9.479498 0.000000 0.000000 0.000000 -2.470588 8.906089 13.218294 5.989276 -10.244243 0.537365 17.517017 52.045982 13.251490 0.000000 0.000000 0.000000 -7.125000 0.000000 0.000000 -6.760352 16.171410 -4.642757 0.000000 0.000000 0.000000 1.371196 10.707084 0.683859 -9.239092 -15.540632 -1.263420 12.187287 33.588923 33.809230 0.000000 0.000000 0.000000 7.125000 0.000000 0.000000 48.443235 56.974200 -16.873400
0.018918 17.495373 8.680308 -8.550764 3.376904 12.097349 0.000000 0.000000 0.000000 -15.927083 -44.329403 20.578230 0.056778 -1.537064 -4.227890 -6.422242 43.328362 -38.783627 0.126589 2.293702 6.318001 0.000000 0.000000 0.000000 26.915418 25.665493 4.798386 -0.006073 -0.503087 1.382421 1.250600 -23.647433 -23.613426 -0.093983 -1.976747 5.441568 4.671463 0.343580 -4.482015 2.191059 0.684777 -11.052886 -0.300548 0.063939 -9.165963 -14.393002 -14.390741 -0.313941 13.350913 -22.081844 20.511887 4.495446 -10.663433 9.649075 0.000000 0.000000 0.000000 -2.342013 8.884561 12.338996 6.020714 -10.296657 0.542922 17.551697 51.334880 13.061449 0.000000 0.000000 0.000000 -7.125000 0.000000 0.000000 -6.733583 16.365269 -4.595725 0.000000 0.000000 0.000000 1.415974 10.585504 0.661481 -9.121171 -15.353323 -1.231994 11.949889 33.551338 33.932244 0.000000 0.000000 0.000000 7.125000 0.000000 0.000000 48.365115 57.113008 -17.008845
0.019458 17.494106 8.688940 -8.500869 3.326841 12.067130 0.000000 0.000000 0.000000 -16.139371 -44.360347 20.824311 0.059278 -1.570815 -4.320910 -6.477348 43.465972 -38.929721 0.125522 2.283342 6.289396 0.000000 0.000000 0.000000 26.905110 25.719123 4.924585 -0.006055 -0.501855 1.378958 1.245464 -23.659337 -23.693842 -0.099425 -2.033609 5.598617 4.612316 0.359393 -4.512387 2.199979 0.702883 -11.034902 -0.259107 0.079306 -9.126762 -14.385644 -14.341612 -0.265225 13.442755 -22.019978 20.394863 4.540749 -10.632689 9.599474 0.000000 0.000000 0.000000 -2.376867 8.832654 12.175965 6.036202 -10.322586 0.545710 17.479500 51.017450 13.172523 0.000000 0.000000 0.000000 -7.125000 0.000000 0.000000 -6.784983 16.256317 -4.647396 0.000000 0.000000 0.000000 1.425361 10.563112 0.509965 -9.126066 -15.361167 -1.233278 11.795733 33.633676 33.815738 0.000000 0.000000 0.000000 7.125000 0.000000 0.000000 48.107296 57.063660 -16.825017
0.019884 17.493289 8.693995 -8.536693 3.333289 12.042038 0.000000 0.000000 0.000000 -16.117986 -44.321637 20.849529 0.058800 -1.565047 -4.304953 -6.535592 43.508520 -38.752298 0.111853 2.156120 5.937312 0.000000 0.000000 0.000000 26.996907 25.792982 5.021032 -0.005921 -0.497842 1.367867 1.272822 -23.785761 -23.687858 -0.091842 -1.954401 5.379768 4.637050 0.354262 -4.489628 2.257505 0.702420 -11.045725 -0.211557 0.079494 -9.153637 -14.533655 -14.321363 -0.216860 13.525735 -22.009109 20.399994 4.593928 -10.634205 9.619614 0.000000 0.000000 0.000000 -2.473093 8.864235 11.842859 6.075104 -10.387340 0.552705 17.402273 50.623472 13.047426 0.000000 0.000000 0.000000 -7.125000 0.000000 0.000000 -6.836553 16.392363 -4.662896 0.000000 0.000000 0.000000 1.362889 10.592093 0.522409 -9.140487 -15.384005 -1.237164 11.815875 33.605009 33.519159 0.000000 0.000000 0.000000 7.125000 0.000000 0.000000 47.815102 56.847450 -16.421141
0.019301 17.493918 8.697352 -8.591107 3.350169 12.063075 0.000000 0.000000 0.000000 -16.083433 -44.399964 20.891318 0.058210 -1.557006 -4.282889 -6.538361 43.542948 -38.849972 0.115977 2.195577 6.046468 0.000000 0.000000 0.000000 27.066022 25.810004 5.000932 -0.006373 -0.513550 1.411106 1.269396 -23.769599 -23.687620 -0.095138 -1.988982 5.475105 4.665630 0.354964 -4.517667 2.283674 0.704528 -11.063549 -0.199327 0.079361 -9.158040 -14.441360 -14.366791 -0.236860 13.413064 -22.056615 20.436708 4.533955 -10.655967 9.618249 0.000000 0.000000 0.000000 -2.480600 8.882372 11.553057 6.088793 -10.410182 0.555193 17.402856 50.331364 12.949046 0.000000 0.000000 0.000000 -7.125000 0.000000 0.000000 -6.834844 16.494073 -4.646586 0.000000 0.000000 0.000000 1.401545 10.528357 0.250347 -9.073287 -15.277153 -1.219356 11.756924 33.873725 33.537707 0.000000 0.000000 0.000000 7.125000 0.000000 0.000000 47.782833 56.873449 -16.438211
